<svg width="32" height="32" viewBox="0 0 32 32" fill="none" xmlns="http://www.w3.org/2000/svg">
<path d="M18.2398 8.28004C18.2398 9.52065 17.2674 10.52 15.9824 10.52C14.7322 10.52 13.7598 9.52065 13.7598 8.28004C13.7598 7.03942 14.7322 6.04004 15.9824 6.04004C17.2674 6.04004 18.2398 7.03942 18.2398 8.28004Z" fill="#666666"/>
<path d="M16 18.24C17.2371 18.24 18.24 17.2371 18.24 16C18.24 14.7629 17.2371 13.76 16 13.76C14.7629 13.76 13.76 14.7629 13.76 16C13.76 17.2371 14.7629 18.24 16 18.24Z" fill="#666666"/>
<path d="M18.2398 23.72C18.2398 24.9606 17.2948 25.96 16.0348 25.96C14.7048 25.96 13.7598 24.9606 13.7598 23.72C13.7598 22.4794 14.7048 21.48 16.0348 21.48C17.2598 21.48 18.2398 22.4794 18.2398 23.72Z" fill="#666666"/>
</svg>
